<?xml version="1.0" standalone="no"?>
<!DOCTYPE svg PUBLIC "-//W3C//DTD SVG 20010904//EN"
 "http://www.w3.org/TR/2001/REC-SVG-20010904/DTD/svg10.dtd">
<svg version="1.0" xmlns="http://www.w3.org/2000/svg"
 width="200.000000pt" height="100.000000pt" viewBox="0 0 200.000000 100.000000"
 preserveAspectRatio="xMidYMid meet">

<g transform="translate(0.000000,100.000000) scale(0.100000,-0.100000)"
fill="#000000" stroke="none">
<path d="M1307 723 c-4 -3 -7 -35 -7 -70 l0 -64 -30 16 c-84 43 -180 -15 -180
-110 0 -76 51 -125 131 -125 33 0 47 6 75 34 l34 34 0 146 c0 133 -4 158 -23
139z m-36 -162 c40 -41 40 -91 0 -132 -20 -20 -39 -29 -61 -29 -41 0 -90 47
-90 87 1 89 91 134 151 74z"/>
<path d="M660 651 c-16 -31 4 -63 37 -59 55 7 55 69 0 76 -18 2 -29 -3 -37
-17z"/>
<path d="M393 604 c-34 -17 -63 -66 -63 -108 0 -75 53 -126 131 -126 33 0 47
6 75 34 30 30 34 40 34 88 0 60 -16 90 -60 113 -37 19 -77 19 -117 -1z m118
-43 c62 -62 22 -161 -64 -161 -36 0 -75 36 -83 75 -17 91 83 150 147 86z"/>
<path d="M883 605 c-83 -36 -84 -178 -1 -221 44 -23 113 -14 146 19 32 33 42
110 18 155 -29 57 -97 76 -163 47z m125 -51 c49 -56 6 -154 -68 -154 -44 0
-90 47 -90 92 0 88 100 127 158 62z"/>
<path d="M1435 610 c-11 -4 -31 -20 -45 -35 -47 -50 -29 -160 32 -191 39 -20
101 -18 131 6 31 24 35 25 59 3 26 -23 35 -8 15 26 -12 21 -17 52 -17 104 0
75 -10 98 -33 79 -8 -7 -20 -6 -37 3 -28 16 -75 18 -105 5z m94 -35 c34 -17
41 -33 41 -86 0 -100 -128 -125 -166 -32 -19 45 -4 97 34 118 35 18 56 18 91
0z"/>
<path d="M100 597 c0 -7 18 -31 40 -52 22 -21 40 -43 40 -48 0 -5 -18 -29 -40
-54 -22 -25 -40 -50 -40 -54 0 -20 28 -6 65 31 21 22 43 40 49 40 5 0 24 -18
43 -40 34 -40 63 -52 63 -27 0 7 -18 31 -40 52 -22 21 -40 44 -40 50 0 6 18
29 40 50 22 21 40 45 40 52 0 25 -29 12 -60 -27 -17 -22 -37 -40 -44 -40 -6 0
-30 18 -51 40 -39 40 -65 51 -65 27z"/>
<path d="M590 597 c0 -13 60 -77 73 -77 14 0 6 26 -16 51 -27 30 -57 44 -57
26z"/>
<path d="M750 575 c-27 -28 -31 -37 -21 -48 10 -10 19 -4 47 26 31 33 37 57
15 57 -4 0 -22 -16 -41 -35z"/>
<path d="M1650 539 c0 -87 19 -132 65 -153 41 -20 66 -20 110 -2 l35 15 0 -30
c0 -19 -10 -39 -26 -56 -22 -22 -32 -25 -70 -20 -24 2 -47 0 -50 -5 -18 -28
78 -38 125 -13 45 23 56 64 54 204 -2 68 -5 126 -7 129 -15 15 -26 -19 -26
-82 0 -62 -3 -75 -22 -93 -32 -29 -65 -37 -99 -22 -42 17 -59 56 -59 134 0 51
-3 65 -15 65 -12 0 -15 -15 -15 -71z"/>
<path d="M637 452 c-26 -26 -47 -53 -47 -60 0 -24 29 -11 60 28 17 22 37 40
44 40 6 0 30 -18 51 -40 41 -42 55 -49 55 -26 0 20 -79 106 -99 106 -9 0 -38
-22 -64 -48z"/>
</g>
</svg>
