<svg width="87" height="88" viewBox="0 0 87 88" fill="none" xmlns="http://www.w3.org/2000/svg">
<path fill-rule="evenodd" clip-rule="evenodd" d="M35.3867 3.77346C37.6486 1.8457 40.5232 0.786865 43.4951 0.786865C46.4669 0.786865 49.3416 1.8457 51.6034 3.77346L56.8992 8.29012C57.5675 8.86001 58.3987 9.20417 59.2742 9.27346L66.2117 9.82763C69.1727 10.0647 71.9525 11.3485 74.053 13.4489C76.1534 15.5494 77.4372 18.3291 77.6742 21.2901L78.2284 28.2318C78.2986 29.1059 78.6427 29.9355 79.2117 30.6026L83.7284 35.8985C85.6562 38.1603 86.715 41.0349 86.715 44.0068C86.715 46.9787 85.6562 49.8533 83.7284 52.1151L79.2117 57.411C78.6419 58.0792 78.2977 58.9104 78.2284 59.786L77.6742 66.7235C77.4372 69.6844 76.1534 72.4642 74.053 74.5647C71.9525 76.6651 69.1727 77.9489 66.2117 78.186L59.2701 78.7401C58.396 78.8103 57.5664 79.1544 56.8992 79.7235L51.6034 84.2401C49.3416 86.1679 46.4669 87.2267 43.4951 87.2267C40.5232 87.2267 37.6486 86.1679 35.3867 84.2401L30.0909 79.7235C29.4227 79.1536 28.5914 78.8094 27.7159 78.7401L20.7784 78.186C17.8174 77.9489 15.0376 76.6651 12.9372 74.5647C10.8368 72.4642 9.55298 69.6844 9.31591 66.7235L8.76174 59.7818C8.6916 58.9077 8.34749 58.0781 7.77841 57.411L3.26174 52.1151C1.33398 49.8533 0.275146 46.9787 0.275146 44.0068C0.275146 41.0349 1.33398 38.1603 3.26174 35.8985L7.77841 30.6026C8.34829 29.9344 8.69246 29.1031 8.76174 28.2276L9.31591 21.2901C9.55298 18.3291 10.8368 15.5494 12.9372 13.4489C15.0376 11.3485 17.8174 10.0647 20.7784 9.82763L27.7201 9.27346C28.5941 9.20332 29.4238 8.85921 30.0909 8.29012L35.3867 3.77346ZM58.9409 38.6193C59.6999 37.8335 60.1199 36.7809 60.1104 35.6885C60.1009 34.596 59.6627 33.5509 58.8902 32.7784C58.1176 32.0058 57.0726 31.5676 55.9801 31.5582C54.8876 31.5487 53.8351 31.9686 53.0492 32.7276L39.3284 46.4485L33.9409 41.061C33.1551 40.302 32.1026 39.882 31.0101 39.8915C29.9176 39.901 28.8725 40.3392 28.1 41.1117C27.3275 41.8843 26.8893 42.9293 26.8798 44.0218C26.8703 45.1143 27.2903 46.1668 28.0492 46.9526L36.3826 55.286C37.1639 56.0671 38.2236 56.5059 39.3284 56.5059C40.4333 56.5059 41.4929 56.0671 42.2742 55.286L58.9409 38.6193Z" fill="#28A138"/>
</svg>
